<svg width="62" height="62" viewBox="0 0 62 62" fill="none" xmlns="http://www.w3.org/2000/svg">
<g id="Group 10364">
<path id="Vector" d="M44.8091 0H16.6314C7.46068 0 0 7.46068 0 16.6314V44.8095C0 53.9798 7.46068 61.4404 16.6314 61.4404H44.8095C53.9798 61.4404 61.4404 53.9798 61.4404 44.8095V16.6314C61.4404 7.46068 53.9798 0 44.8091 0ZM57.8385 44.8095C57.8385 51.9937 51.9937 57.8385 44.8091 57.8385H16.6314C9.44679 57.8385 3.6019 51.9937 3.6019 44.8095V16.6314C3.6019 9.44679 9.44679 3.6019 16.6314 3.6019H44.8095C51.9937 3.6019 57.8385 9.44679 57.8385 16.6314V44.8095Z" fill="#303030"/>
<path id="Vector_2" d="M30.7215 13.9207C21.458 13.9207 13.9219 21.4568 13.9219 30.7203C13.9219 39.9838 21.458 47.52 30.7215 47.52C39.985 47.52 47.5212 39.9838 47.5212 30.7203C47.5212 21.4568 39.985 13.9207 30.7215 13.9207ZM30.7215 43.9181C23.4446 43.9181 17.5238 37.9977 17.5238 30.7203C17.5238 23.4434 23.4446 17.5226 30.7215 17.5226C37.9989 17.5226 43.9193 23.4434 43.9193 30.7203C43.9193 37.9977 37.9989 43.9181 30.7215 43.9181Z" fill="white"/>
<path id="Vector_3" d="M47.925 7.95435C45.1875 7.95435 42.9609 10.1814 42.9609 12.9184C42.9609 15.656 45.1875 17.883 47.925 17.883C50.6626 17.883 52.8896 15.656 52.8896 12.9184C52.8896 10.1809 50.6626 7.95435 47.925 7.95435ZM47.925 14.2806C47.1741 14.2806 46.5628 13.6694 46.5628 12.9184C46.5628 12.167 47.1741 11.5562 47.925 11.5562C48.6764 11.5562 49.2877 12.167 49.2877 12.9184C49.2877 13.6694 48.6764 14.2806 47.925 14.2806Z" fill="white"/>
</g>
</svg>
