<svg width="62" height="62" viewBox="0 0 62 62" fill="none" xmlns="http://www.w3.org/2000/svg">
<g id="Group 10365">
<path id="Vector" d="M44.8091 0H16.6314C7.46068 0 0 7.46068 0 16.6314V44.8095C0 53.9798 7.46068 61.4404 16.6314 61.4404H44.8095C53.9798 61.4404 61.4404 53.9798 61.4404 44.8095V16.6314C61.4404 7.46068 53.9798 0 44.8091 0ZM57.8385 44.8095C57.8385 51.9937 51.9937 57.8385 44.8091 57.8385H16.6314C9.44679 57.8385 3.6019 51.9937 3.6019 44.8095V16.6314C3.6019 9.44679 9.44679 3.6019 16.6314 3.6019H44.8095C51.9937 3.6019 57.8385 9.44679 57.8385 16.6314V44.8095Z" fill="#303030"/>
<g id="Group 10349">
<path id="Vector_2" d="M18.7594 12.8677C16.4862 12.8677 15 14.3603 15 16.3223C15 18.2408 16.442 19.7761 18.6722 19.7761H18.7153C21.0329 19.7761 22.4753 18.2408 22.4753 16.3223C22.4319 14.3603 21.0329 12.8677 18.7594 12.8677Z" fill="white"/>
<path id="Vector_3" d="M15.3906 22.5059H22.036V42.4988H15.3906V22.5059Z" fill="white"/>
<path id="Vector_4" d="M38.3532 22.0366C34.7682 22.0366 32.3643 25.4053 32.3643 25.4053V22.5059H25.7188V42.4988H32.364V31.334C32.364 30.7363 32.4073 30.1395 32.5829 29.7121C33.0633 28.5185 34.1565 27.2821 35.9924 27.2821C38.3971 27.2821 39.3588 29.1155 39.3588 31.8032V42.4988H46.0037V31.0352C46.0037 24.8942 42.725 22.0366 38.3532 22.0366Z" fill="white"/>
</g>
</g>
</svg>
