<svg width="703" height="575" viewBox="0 0 703 575" fill="none" xmlns="http://www.w3.org/2000/svg">
<line x1="0.5" y1="1" x2="0.499969" y2="574.181" stroke="white" stroke-opacity="0.06"/>
<line x1="32.375" y1="1" x2="32.375" y2="574.181" stroke="white" stroke-opacity="0.06"/>
<line x1="64.2578" y1="1" x2="64.2578" y2="574.181" stroke="white" stroke-opacity="0.06"/>
<line x1="96.1328" y1="1" x2="96.1328" y2="574.181" stroke="white" stroke-opacity="0.06"/>
<line x1="128.016" y1="1" x2="128.016" y2="574.181" stroke="white" stroke-opacity="0.06"/>
<line x1="159.891" y1="1" x2="159.891" y2="574.181" stroke="white" stroke-opacity="0.06"/>
<line x1="191.773" y1="1" x2="191.773" y2="574.181" stroke="white" stroke-opacity="0.06"/>
<line x1="223.648" y1="1" x2="223.648" y2="574.181" stroke="white" stroke-opacity="0.06"/>
<line x1="255.531" y1="1" x2="255.531" y2="574.181" stroke="white" stroke-opacity="0.06"/>
<line x1="287.414" y1="1" x2="287.414" y2="574.181" stroke="white" stroke-opacity="0.06"/>
<line x1="319.281" y1="1" x2="319.281" y2="574.181" stroke="white" stroke-opacity="0.06"/>
<line x1="351.164" y1="1" x2="351.164" y2="574.181" stroke="white" stroke-opacity="0.06"/>
<line x1="383.047" y1="1" x2="383.047" y2="574.181" stroke="white" stroke-opacity="0.06"/>
<line x1="414.922" y1="1" x2="414.922" y2="574.181" stroke="white" stroke-opacity="0.06"/>
<line x1="446.805" y1="1" x2="446.805" y2="574.181" stroke="white" stroke-opacity="0.06"/>
<line x1="478.68" y1="1" x2="478.68" y2="574.181" stroke="white" stroke-opacity="0.06"/>
<line x1="510.562" y1="1" x2="510.562" y2="574.181" stroke="white" stroke-opacity="0.06"/>
<line x1="542.445" y1="1" x2="542.445" y2="574.181" stroke="white" stroke-opacity="0.06"/>
<line x1="574.312" y1="1" x2="574.312" y2="574.181" stroke="white" stroke-opacity="0.06"/>
<line x1="606.195" y1="1" x2="606.195" y2="574.181" stroke="white" stroke-opacity="0.06"/>
<line x1="638.078" y1="1" x2="638.078" y2="574.181" stroke="white" stroke-opacity="0.06"/>
<line x1="669.953" y1="1" x2="669.953" y2="574.181" stroke="white" stroke-opacity="0.06"/>
<line x1="701.836" y1="1" x2="701.836" y2="574.181" stroke="white" stroke-opacity="0.06"/>
<line y1="0.5" x2="701.333" y2="0.5" stroke="white" stroke-opacity="0.06"/>
<line y1="32.3789" x2="701.333" y2="32.3789" stroke="white" stroke-opacity="0.06"/>
<line y1="64.2573" x2="701.333" y2="64.2573" stroke="white" stroke-opacity="0.06"/>
<line y1="96.1365" x2="701.333" y2="96.1365" stroke="white" stroke-opacity="0.06"/>
<line y1="128.015" x2="701.333" y2="128.015" stroke="white" stroke-opacity="0.06"/>
<line y1="159.894" x2="701.333" y2="159.894" stroke="white" stroke-opacity="0.06"/>
<line y1="191.773" x2="701.333" y2="191.773" stroke="white" stroke-opacity="0.06"/>
<line y1="223.652" x2="701.333" y2="223.652" stroke="white" stroke-opacity="0.06"/>
<line y1="255.53" x2="701.333" y2="255.53" stroke="white" stroke-opacity="0.06"/>
<line y1="287.409" x2="701.333" y2="287.409" stroke="white" stroke-opacity="0.06"/>
<line y1="319.288" x2="701.333" y2="319.288" stroke="white" stroke-opacity="0.06"/>
<line y1="351.167" x2="701.333" y2="351.167" stroke="white" stroke-opacity="0.06"/>
<line y1="383.046" x2="701.333" y2="383.046" stroke="white" stroke-opacity="0.06"/>
<line y1="414.924" x2="701.333" y2="414.924" stroke="white" stroke-opacity="0.06"/>
<line y1="446.803" x2="701.333" y2="446.803" stroke="white" stroke-opacity="0.06"/>
<line y1="478.681" x2="701.333" y2="478.681" stroke="white" stroke-opacity="0.06"/>
<line y1="510.56" x2="701.333" y2="510.56" stroke="white" stroke-opacity="0.06"/>
<line y1="542.439" x2="701.333" y2="542.439" stroke="white" stroke-opacity="0.06"/>
<line y1="574.318" x2="701.333" y2="574.318" stroke="white" stroke-opacity="0.06"/>
</svg>
